<svg width="591" height="682" viewBox="0 0 591 682" fill="none" xmlns="http://www.w3.org/2000/svg">
<g clip-path="url(#clip0_281_146)">
<path d="M239.7 407.8C239.7 407.8 215 408.7 201.2 408.4C196.1 408.3 192.5 407.9 192.1 407.3C190.6 405 182.4 182.2 182.4 180.7L199.8 181.9L231.5 184.2L239.7 407.8Z" fill="#E5EAEC"/>
<path d="M193.6 161L201.1 408.4C196 408.3 192.4 407.9 192 407.3C190.5 405 182.3 182.2 182.3 180.7L193.6 161Z" fill="#A6BDCC"/>
<path d="M342.7 388.9C315.2 388.9 274.1 388.9 246.6 388.9C219.1 388.9 165.1 388.7 137.6 389.6C131.8 389.8 131.8 398.4 137.6 398.6C165.1 399.5 219.1 399.3 246.6 399.3C274.1 399.3 315.2 399.3 342.7 399.3C349.5 399.4 349.5 388.8 342.7 388.9Z" fill="#1A1A1A"/>
<path d="M314.5 229C314.4 228.8 314.4 228.5 314.3 228.3C305.2 197.5 272.3 92.1 262.3 85.6C252.7 79.4 135.8 78.3 95.8 82.5C91.1 87.1 87.2 92.5 86.4 98.6C97.4 134.9 128.3 235.1 136.1 239C144.3 243.1 272.5 242.9 307.8 238.8C310.8 236.3 312.9 232.8 314.5 229Z" fill="#E5EAEC"/>
<path d="M314.5 229C314.4 228.8 314.4 228.5 314.3 228.3C284.8 229 150.2 231.9 144.2 229.5C138 227 101.2 102.5 95.4 82.8C90.9 87.3 87.1 92.6 86.3 98.6C97.3 134.9 128.2 235.1 136 239C144.2 243.1 272.4 242.9 307.7 238.8C310.8 236.3 312.9 232.8 314.5 229Z" fill="#A6BDCC"/>
<path d="M300.3 212.5C300.1 212.9 298.2 213.2 295 213.4C268.1 215.6 149.2 214.2 144.9 211.8C140.3 209.1 110.3 104.6 109 100C109 99.9001 109 99.8001 109 99.8001C108.3 95.7001 254.9 97.8001 262.4 99.8001C269.7 101.9 302.3 209.2 300.3 212.5Z" fill="#1A1A1A"/>
<path d="M294.9 213.5C268 215.7 149.1 214.3 144.8 211.9C144.7 211.8 144.5 211.7 144.3 211.4C138.4 203.1 110.1 104.6 108.8 100.1C135.4 97.7 250.1 99.5 256.7 101.3C256.8 101.3 256.8 101.3 256.9 101.4C264.7 105.2 295.3 205.5 294.9 213.5Z" fill="#225C96"/>
<path d="M198.4 87.7C191.7 87.7 185.1 87.8 178.4 87.9C176.8 87.9 176.8 90.4 178.4 90.4C185.1 90.5 191.7 90.5 198.4 90.6C200.3 90.5 200.3 87.6 198.4 87.7Z" fill="#464C7B"/>
<path d="M245.8 220.2C235.7 220.2 225.4 219.9 215.4 220.5C213.3 220.6 213.3 223.7 215.4 223.8C225.5 224.4 235.7 224.1 245.8 224.1C248.2 224 248.2 220.2 245.8 220.2Z" fill="#1A1A1A"/>
<path d="M361.4 673.9C359.7 676.5 279.7 677.6 217.7 677C170.9 676.5 129.6 675 128 672.4C124.2 666.4 120.4 399.7 123.5 397.4C124.8 396.4 165.7 396.3 212 396.4C273.9 396.6 353.9 397.4 353.9 397.4C353.9 397.4 364.4 669.3 361.4 673.9Z" fill="#E5EAEC"/>
<path d="M371.5 667.3C363.3 665.4 354.1 666.5 345.8 666.5H269.1C251.9 666.5 234.6 666.5 217.4 666.5L211.9 396.5C165.6 396.3 124.7 396.5 123.4 397.5C120.6 399.6 123.6 627.4 127.1 666.8C121.3 666.9 115.4 667.1 109.7 667.9C104.3 668.7 104.3 677.9 109.7 678.7C118.1 679.9 126.7 679.8 135.3 679.9L160.9 680C178 680.1 195 680 212.1 680H356.6C361.7 680 366.8 680.3 371.8 679.2C377.4 677.8 377.4 668.6 371.5 667.3Z" fill="#A6BDCC"/>
<path d="M217.1 478.6C203.4 477.7 189.5 478.2 175.7 478.2L134.3 478.1C106.7 478 79.2 478.1 51.6 478.1C36.1 478.1 20.5 478.1 5.00002 478.1C-1.79998 478.1 -1.79998 491.7 5.00002 491.7C60.1 491.7 115.3 491.7 170.4 491.6C185.9 491.6 201.6 492.2 217 491.2C223.2 490.6 223.2 479 217.1 478.6Z" fill="#E5EAEC"/>
<path d="M316.2 419C299.1 419.1 281.9 419.3 264.8 419.4C260.6 419.4 260.6 425.9 264.8 425.9C281.9 426.1 299.1 426.3 316.2 426.3C321 426.4 321 419 316.2 419Z" fill="#464C7B"/>
<path d="M92.6001 369.4C92.6001 369.4 105.4 373.5 114.5 367.5C119.2 364.4 120.6 357.2 121.4 352.1C121.9 348.7 121.9 345.4 122.1 342C122.3 338 122.2 334 121.8 330C121.7 329.4 121.7 328.9 121.6 328.3C120.8 323.1 119.2 318 116.4 313.5C115.1 311.4 113.5 309.4 111.2 308.5C110.9 308.4 110.5 308.3 110.2 308.3C109.3 308.4 108.9 309.6 108.7 310.5C107.8 317 110.7 323.6 110.2 330.2C110.2 330.5 110.1 330.8 109.8 330.9C109.6 331 109.5 330.9 109.3 330.8C107 329.7 105.6 326.4 104.3 324.3C102.7 321.8 101 319.3 99.3001 316.8C95.8001 311.7 92.0001 306.7 87.8001 302.3C84.1001 298.5 79.5001 293.9 74.0001 293C66.6001 291.8 72.5001 302.3 74.0001 304.8C78.7001 313.1 84.6001 320.8 90.4001 328.2C92.6001 331 95.6001 333.8 96.2001 337.5C96.2001 337.8 96.3001 338.2 96.0001 338.4C95.8001 338.5 95.6001 338.5 95.4001 338.5C94.4001 338.3 93.5001 337.7 92.6001 337.1C90.3001 335.5 87.8001 334.4 85.3001 333.2C84.1001 332.7 82.9001 332.1 81.6001 332C75.4001 331.4 79.8001 339.3 81.4001 341.7C84.2001 345.9 87.5001 349.8 90.6001 353.8C93.1001 357.1 97.2001 361.5 97.2001 366L92.6001 369.4Z" fill="#0B9982"/>
<path d="M145.6 329.9C145.6 329.9 153.7 279.2 145.7 277.4C129 273.7 117 336.5 117 336.5L145.6 329.9Z" fill="#FDA02C"/>
<path d="M142.1 308.5C142.1 308.5 139.3 312 130.9 314.6C125.3 316.4 121.4 321.9 121.4 321.9C121.4 321.9 123.7 316 128.8 311.6C135.2 306 142.1 308.5 142.1 308.5Z" fill="#FFC275"/>
<path d="M143.3 295.7C143.3 295.7 141.1 298.4 134.5 300.5C130.1 301.9 127.1 306.2 127.1 306.2C127.1 306.2 128.9 301.6 132.9 298.1C137.9 293.7 143.3 295.7 143.3 295.7Z" fill="#FFC275"/>
<path d="M144.6 282.8C144.6 282.8 143 284.8 138.3 286.3C135.1 287.3 133 290.4 133 290.4C133 290.4 134.3 287.1 137.2 284.6C140.7 281.4 144.6 282.8 144.6 282.8Z" fill="#FFC275"/>
<path d="M153.5 323.8C151.6 324.6 149.8 325.7 148.1 327C147.9 326.2 147.7 325.4 147.4 324.6C147.3 324.3 147.2 324 147 323.8C146.4 323.3 145.5 323.9 145.1 324.6C144.7 325.2 144.1 326.1 143.4 325.9C142.7 325.8 142.4 325 142.2 324.4C142 323.8 141.4 323 140.8 323.2C140.6 323.3 140.4 323.4 140.2 323.6C139.4 324.3 138.5 325 137.7 325.8C137.1 324.8 136.5 323.9 135.9 322.9C135.2 323.1 134.9 323.9 134.5 324.6C134.1 325.3 133.4 325.9 132.7 325.6C132.2 325.4 132.1 324.8 131.9 324.3C131.7 323.8 131.2 323.3 130.7 323.5C130.4 323.6 130.2 324 129.9 324.3C129.4 324.8 128.5 324.8 127.8 324.4C127.2 324 126.8 323.3 126.4 322.7C125.7 323.8 125.1 325 124.4 326.1C123.4 325 122.4 323.9 121.3 323C120.9 323.9 120.5 324.8 120.2 325.7C120.1 326 119.8 326.4 119.5 326.3C119.3 326.3 119.2 326.1 119.1 325.9C118.6 325 118 324.1 117.5 323.3C115.8 341.2 114 359.2 108.6 376.4C116.8 375.5 125 374.5 133.3 373.6C133.8 373.5 134.3 373.5 134.7 373.2C135.3 372.8 135.6 372 135.8 371.3C139.9 357.6 144.4 344 149.3 330.5C149.6 329.8 149.9 329 150.7 328.7C151.2 328.5 151.9 329 152.4 328.8C153.6 327.8 153 324 153.5 323.8Z" fill="white"/>
<path d="M152.9 370.5C152.9 370.5 171.7 318.9 163.7 315.5C146.9 308.2 121.6 371.6 121.6 371.6L152.9 370.5Z" fill="#FDA02C"/>
<path d="M149.6 360.7C149.6 360.7 145.2 364.5 133.8 365.8C126.2 366.6 119.9 372.8 119.9 372.8C119.9 372.8 124.3 365.8 131.9 361.4C141.5 355.7 149.6 360.7 149.6 360.7Z" fill="#FFC275"/>
<path d="M153.5 347.4C153.5 347.4 149.9 350.5 140.5 351.6C134.2 352.3 129.1 357.3 129.1 357.3C129.1 357.3 132.7 351.6 139 348C146.8 343.4 153.5 347.4 153.5 347.4Z" fill="#FFC275"/>
<path d="M157.5 334.2C157.5 334.2 154.7 336.6 147.3 337.4C142.4 337.9 138.4 341.9 138.4 341.9C138.4 341.9 141.2 337.4 146.1 334.6C152.2 331 157.5 334.2 157.5 334.2Z" fill="#FFC275"/>
<path d="M161.4 321C161.4 321 159.3 322.8 154.1 323.3C150.6 323.7 147.7 326.5 147.7 326.5C147.7 326.5 149.8 323.3 153.3 321.2C157.6 318.7 161.4 321 161.4 321Z" fill="#FFC275"/>
<path d="M65.6 323.5C65.5 322.8 65.1 322.1 64.9 321.6C64.3 320.3 63.8 319.1 63.1 317.8C62.8 317.2 62.5 316.6 62.1 316C61.9 315.6 61.7 315.1 61.3 314.8C60.8 314.4 59.9 314.4 59.3 314.5C56.9 314.6 54.6 315.5 52.5 316.5C50.5 317.5 48.5 318.6 46.9 320.2C46.4 320.7 45.9 321.3 45.7 321.9C45.5 322.6 45.8 323.5 46.1 324.2C46.7 325.5 47.3 326.7 47.9 328C48.2 328.6 48.5 329.3 48.8 329.9C49 330.4 49.2 330.9 49.6 331.3C50.9 332.3 53.1 331.7 54.5 331.4C55.9 331 57.3 330.5 58.6 329.8C60.6 328.8 62.6 327.7 64.2 326.1C64.7 325.6 65.2 325.1 65.4 324.4C65.7 324.1 65.7 323.8 65.6 323.5Z" fill="#6D95CB"/>
<path d="M79.2001 334.7C76.6001 332.6 67.2001 328.3 65.9001 327C65.3001 326.3 64.0001 323.4 62.7001 320.5C60.9001 321.5 59.1001 322.4 57.4001 323.4C56.0001 324.3 51.3001 327 49.8001 327.8C51.2001 330.4 52.4001 332.9 52.4001 334C52.3001 336.7 48.7001 346 48.7001 348.7C48.6001 351.4 69.2001 395.9 73.2001 397.3C77.2001 398.7 99.6001 386.6 100.3 383.9C101 381.2 81.5001 336.5 79.2001 334.7Z" fill="#E5EAEC"/>
<path d="M80.5 342.8C80.5 342.8 55.4 343.4 51.6 345.8C51.6 345.8 50.3 348.3 50.9 349.5C52.7 353.3 54.5 357.1 56.3 360.8C59.6 367.6 62.9 374.5 66.3 381.3C67.4 383.6 68.6 385.8 69.8 388.1C70.4 389.3 72 393.5 73.5 393.6C74 393.6 74.4 393.3 74.8 393C80.7 388.1 87.8 384.2 95.5 383.6C96 383.6 96.5 383.5 96.9 383.3C98.3 382.5 95.6 377.4 95.2 376.2C93.9 372.9 92.6 369.6 91.3 366.3C88.6 359.7 85.9 353.1 82.8 346.7C82.1 345.4 81.4 344 80.5 342.8Z" fill="white"/>
<path d="M85.4 346.7C82.3 346.5 72.4 346.7 60.5 353.9C60.5 353.9 70.9 374.7 71.5 376C72.1 377.3 77.9 368.8 95 368.9L85.4 346.7Z" fill="#6D95CB"/>
<path d="M65.5001 322.7C63.9001 320.5 61.8001 319.8 59.4001 321C56.8001 322.3 50.5001 324.6 49.0001 327.2C48.2001 328.6 51.7001 332.4 52.9001 331.3C54.7001 329.6 56.6001 328.2 58.8001 327.1C61.0001 325.9 63.4001 325.8 65.6001 324.8C66.2001 324.4 66.0001 323.4 65.5001 322.7Z" fill="#6D95CB"/>
<path d="M64.9 323.6C59.6 324.2 54.5 327.1 50.9 330.9C50 331.8 51.4 333.1 52.3 332.3C56.1 328.9 60.3 327.1 65.2 325.8C66.4 325.5 66.1 323.5 64.9 323.6Z" fill="#346A91"/>
<path d="M74.4 336.7C72 333.5 68.6 331 65.1 329.2C63.8 328.5 62.6 330.4 63.9 331.1C67.3 333 70 335.5 72.7 338.3C73.8 339.4 75.3 337.9 74.4 336.7Z" fill="white"/>
<path d="M75.4001 364.7C77.3001 351.2 85.0001 342.2 105.6 344.8C126.2 347.4 128.7 362.6 128.7 362.6C128.7 362.6 73.5001 378.2 75.4001 364.7Z" fill="#C02328"/>
<path d="M43.2001 456.7C43.2001 464.4 44.5001 478.6 44.5001 478.6L74.8001 478.4L166.7 477.9C166.7 477.9 169.3 438 166.1 430.3C164.7 427 163.1 423.4 161.8 419.5C160 414.3 158.7 408.8 159 403.3C159.1 401.6 159.2 399.8 159.3 398.1C159.6 394.4 159.8 390.6 160 386.9C160.3 380.3 160.6 373.6 160.6 367C160.6 362.4 160.7 357.7 160.6 353.1C160.6 352.2 160.6 349.4 159.1 349.6C158.6 349.7 158.2 350.1 157.9 350.5C156.7 352.2 155.5 354.6 153.5 355.4C152.5 355.8 151.4 355 150.6 354.1C149.9 353.3 149 352.3 147.9 352.3C145.9 352.4 145.3 355.5 143.3 355.7C141.2 355.9 140 352.4 137.9 352.8C136 353.2 135.9 356.5 134 357C132.8 357.3 131.7 356.2 130.8 355.3C129.9 354.4 128.7 353.4 127.6 353.9C125.8 354.7 126.4 358.1 124.5 358.5C122.5 358.9 121.7 355.3 119.7 355.2C118.4 355.1 117.6 356.4 117 357.5C116.4 358.6 115.4 359.8 114.2 359.6C112.4 359.3 112.3 356.3 110.5 355.7C109.4 355.3 108.2 356.2 107.5 357.2C106.9 358.2 106.6 359.5 105.9 360.4C105.7 360.7 105.4 361 105 361.1C104.6 361.2 104.1 360.9 103.8 360.6C102.8 359.7 102.2 358.5 101.2 357.6C100.2 356.7 98.7001 356.1 97.6001 356.9C96.7001 357.5 96.6001 358.7 96.2001 359.7C95.9001 360.7 95.0001 361.8 94.0001 361.5C93.5001 361.4 93.2001 361 92.9001 360.6C92.4001 359.8 92.2001 358.9 91.8001 358C91.4001 357.2 90.6001 356.4 89.7001 356.4C88.4001 356.5 87.7001 357.9 87.3001 359.1C86.9001 360.3 86.1001 361.8 84.9001 361.7C82.5001 361.6 82.7001 357.6 80.2001 357.3C77.7001 357 76.5001 360.1 75.3001 361.8C75.3001 361.9 75.2001 361.9 75.2001 362C75.1001 362.1 75.0001 362.2 74.9001 362.3C74.4001 362.5 73.8001 362 73.5001 361.4C73.0001 360.6 72.5001 359.7 72.0001 358.9C71.5001 358 70.7001 357 69.7001 357.3C68.2001 357.7 68.4001 360.6 66.9001 360.8C66.0001 360.9 65.4001 359.9 65.0001 359.1C64.6001 358.1 64.1001 357.2 63.7001 356.2C63.3001 355.3 62.9001 354.5 62.2001 353.8C61.5001 353.2 60.4001 352.9 59.6001 353.3C58.6001 353.9 58.4001 355.2 58.0001 356.3C57.6001 357.4 56.4001 358.5 55.5001 357.9C55.2001 357.7 55.0001 357.4 54.8001 357C53.7001 355 52.7001 351.6 50.0001 351.6C49.7001 351.6 49.4001 351.6 49.1001 351.8C48.5001 352.2 48.3001 353 48.3001 353.7C48.0001 358.6 47.7001 363.6 47.5001 368.5C47.3001 373.2 48.3001 377.9 47.1001 382.6C45.8001 387.1 45.8001 410.3 45.8001 410.3C45.8001 410.3 51.6001 429 47.7001 436.7C43.9001 444.5 43.2001 449 43.2001 456.7Z" fill="#F9DFCD"/>
<path d="M47.7 436.8C51.6 429.1 45.8 410.4 45.8 410.4C45.8 410.4 45.8 387.2 47.1 382.7C48.4 378 47.3 373.3 47.5 368.6C47.7 363.7 48 358.7 48.3 353.8C48.4 353.1 48.5 352.2 49.1 351.9C49.4 351.7 49.7 351.7 50 351.7C52.7 351.7 53.7 355.2 54.8 357.1C55 357.4 55.2 357.8 55.5 358C56.5 358.6 57.7 357.5 58 356.4C58.4 355.3 58.6 354 59.6 353.4C60.4 352.9 61.5 353.3 62.2 353.9C62.9 354.5 63.3 355.4 63.7 356.3C64.1 357.3 64.6 358.2 65 359.2C65.4 360 66 361 66.9 360.9C68.5 360.7 68.2 357.8 69.7 357.4C70.7 357.1 71.5 358.2 72 359C72.5 359.8 73 360.7 73.5 361.5C73.8 362 74.3 362.6 74.9 362.4C75 362.3 75.1 362.3 75.2 362.1C75.2 362.6 75.1 363 75 363.5C74.1 367.8 73.4 372.1 72.7 376.4C94.2 374.8 150.7 371.2 157.2 370.6C157.9 370.5 157.9 371.6 157.2 371.7C134 375.4 72.4 378.3 72.4 378.7C71.7 383.1 71 387.5 71.6 391.9C72 395.3 73.2 398.6 73.5 402C73.8 406.1 72.8 410.5 74.2 414.3C74.9 416.1 76.1 417.7 76.7 419.6C78.8 426.5 71.7 433.2 71.9 440.4C71.9 441.8 72.3 443.2 73.2 444.3C73.8 445.1 74.7 445.6 75.5 446.2C78.8 448.6 81 452.5 81.3 456.6C81.4 458.1 81.3 459.6 80.7 460.9C80.1 462.1 79.2 463.1 78.4 464.1C75.4 468.1 74.7 473.1 74.9 478.2L44.6 478.4C44.6 478.4 43.3 464.3 43.3 456.5C43.2 449 43.9 444.5 47.7 436.8Z" fill="#EACAB5"/>
<path opacity="0.3" d="M76.8001 424.6C77.0001 424.4 80.8001 424.8 81.4001 424.7C83.9001 424.5 86.1001 425.1 88.5001 425.6C94.2001 426.8 100 428.1 105.7 429.3C107 429.6 108.3 429.8 109.5 429.6C111.9 429.2 113.7 427.3 115.9 426.3C119.6 424.5 123.9 425.4 127.9 426.1C132.4 426.9 136.9 427.5 141.5 427.9C141.9 427.9 142.3 428 142.5 428.2C143.1 428.8 142.5 429.9 141.8 430.4C139.5 432 136.5 432.1 133.8 433C129.3 434.4 125.6 437.9 121 438.6C119.1 438.9 117.1 438.6 115.2 439C112.6 439.5 110.3 441.2 107.8 442.2C105.4 443.1 102.7 443.3 100.2 442.7C99.0001 442.4 97.8001 442 96.6001 442C92.8001 442.1 89.4001 446.4 86.1001 448C83.4001 449.3 79.0001 450.7 76.1001 450.3C71.6001 449.7 65.2001 441.3 65.2001 441.3C65.2001 441.3 76.7001 424.7 76.8001 424.6Z" fill="#EACAB5"/>
<path opacity="0.3" d="M122.6 406.8C123 407.5 124 407.8 124.8 408C126.8 408.4 128.8 408.8 130.8 409.2C133.2 409.7 135.6 410.2 137.6 411.5C138.5 412.1 139.3 412.8 140.2 413.2C141 413.5 141.8 413.5 142.6 413.6C146.5 413.9 149.9 415.2 153.4 417C154.7 417.7 161.4 418.4 161.7 419.5C159.9 414.3 158.6 408.8 158.9 403.3C159 401.6 159.1 399.8 159.2 398.1C154.6 398.9 150.3 400.1 145.6 400.5C138.5 401.1 131.5 402.3 124.7 404.2C123.6 404.5 122.1 405.2 122.3 406.4C122.5 406.5 122.6 406.7 122.6 406.8Z" fill="#EACAB5"/>
<path d="M130.6 200.1C130.2 197.7 113.1 165 110 161.4C107.6 158.5 105 161.9 102 163.6C100.7 164.3 120.2 205.7 122.1 205C124.6 204 130.9 201.8 130.6 200.1Z" fill="#3A1B23"/>
<path d="M128.1 203.3V203.4V203.5C127.7 205.2 124.8 210.3 124.8 210.3C124.8 210.3 94.6 214.4 92.4 211C89.7 206.8 73.9 175.7 74.5 171.7C75 167.9 77 161.8 78.9 159.8C79 159.7 79.1 159.6 79.1 159.6C80.8 159 102.9 159 105 160.9C107.3 162.8 128.4 201.7 128.1 203.3Z" fill="#6A516B"/>
<path d="M128.1 203.4C127.7 205.2 124.8 210.3 124.8 210.3C124.8 210.3 94.6 214.4 92.4 211C89.7 206.8 73.9 175.7 74.5 171.7C75 167.9 77 161.8 78.9 159.8C83.2 169.8 95.8 201.7 99.6 203.5C103.2 205.3 120.6 203.3 128.1 203.4Z" fill="#3A1B23"/>
<path d="M83.2001 163C83.2001 163 87.0001 173.3 89.4001 173.6C91.8001 173.9 108.6 175 108.9 174.3C109.2 173.6 104.5 162.9 102.9 162.7C101.3 162.4 83.3001 162.2 83.2001 163Z" fill="white"/>
<path d="M97.4 177.8C96.1 176.9 94.2 177.1 92.6 177.2C90.8 177.4 91.2 180.1 93 180C94.4 179.9 95.8 180.3 97.1 179.9C98 179.6 98.2 178.3 97.4 177.8Z" fill="#543C56"/>
<path d="M105.4 178.1C104.1 177.2 102.2 177.4 100.6 177.5C98.8 177.7 99.2 180.4 101 180.3C102.4 180.2 103.8 180.6 105.1 180.2C106 179.9 106.1 178.6 105.4 178.1Z" fill="#543C56"/>
<path d="M113.4 178.3C112.1 177.4 110.2 177.6 108.6 177.7C106.8 177.9 107.2 180.6 109 180.5C110.4 180.4 111.8 180.8 113.1 180.4C113.9 180.2 114.1 178.9 113.4 178.3Z" fill="#543C56"/>
<path d="M100.6 183.9C99.3 183 97.3 183.2 95.8 183.4C94 183.6 94.4 186.3 96.2 186.2C97.6 186.1 99 186.5 100.3 186.1C101.2 185.7 101.3 184.4 100.6 183.9Z" fill="#543C56"/>
<path d="M108.6 184.1C107.3 183.2 105.3 183.4 103.8 183.6C102 183.8 102.4 186.5 104.2 186.4C105.6 186.3 107 186.7 108.3 186.3C109.1 185.9 109.3 184.6 108.6 184.1Z" fill="#543C56"/>
<path d="M116.5 184.3C115.2 183.4 113.2 183.6 111.7 183.8C109.9 184 110.3 186.7 112.1 186.6C113.5 186.5 114.9 186.9 116.2 186.5C117.1 186.1 117.3 184.8 116.5 184.3Z" fill="#543C56"/>
<path d="M103.8 189.9C102.5 189 100.5 189.3 99 189.4C97.2 189.6 97.6 192.3 99.4 192.2C100.8 192.1 102.2 192.5 103.5 192C104.4 191.8 104.5 190.4 103.8 189.9Z" fill="#543C56"/>
<path d="M111.7 190.1C110.3 189.2 108.4 189.5 106.9 189.6C105.1 189.8 105.5 192.5 107.3 192.4C108.7 192.3 110.1 192.7 111.4 192.2C112.3 191.9 112.5 190.6 111.7 190.1Z" fill="#543C56"/>
<path d="M119.7 190.2C118.3 189.3 116.4 189.6 114.9 189.7C113.1 189.9 113.5 192.6 115.3 192.5C116.7 192.4 118.1 192.8 119.4 192.3C120.3 192 120.4 190.7 119.7 190.2Z" fill="#543C56"/>
<path d="M106.9 196C105.5 195.1 103.6 195.4 102.1 195.6C100.3 195.8 100.8 198.5 102.6 198.4C104 198.3 105.4 198.6 106.7 198.2C107.5 197.9 107.7 196.5 106.9 196Z" fill="#009245"/>
<path d="M114.9 196.1C113.5 195.2 111.6 195.5 110.1 195.7C108.3 195.9 108.8 198.6 110.6 198.5C112 198.4 113.4 198.7 114.7 198.3C115.5 197.9 115.6 196.6 114.9 196.1Z" fill="#EFB44B"/>
<path d="M122.9 196.1C121.5 195.2 119.6 195.5 118.1 195.7C116.3 195.9 116.8 198.6 118.6 198.5C120 198.4 121.4 198.7 122.7 198.3C123.5 198 123.6 196.6 122.9 196.1Z" fill="#ED4450"/>
<g opacity="0.5">
<path d="M350.1 561.7C350 557.7 350 553.6 350 549.6C350 547.6 350 545.5 349.9 543.5C349.9 541.8 350.1 540.4 349.3 538.8C348.9 538.1 348.4 537.4 347.7 537.1C346.1 536.3 344.5 536.5 342.7 536.5C340.8 536.5 338.9 536.5 336.9 536.6C327.8 536.7 318.6 536.8 309.5 536.9C300.4 537 291.2 537.1 282.1 537.3C273 537.4 263.8 537.5 254.7 537.7C253 537.7 251.2 537.7 249.5 537.8C246 537.8 242.5 537.9 239 538C237.3 538 235.5 538.1 233.8 538.1C232 538.1 229.3 537.7 228.3 539.6C227.9 540.4 227.9 541.2 227.9 542.1C227.8 543.1 227.9 544.1 227.9 545.1C227.9 547.1 228 549 228 551C228 554.5 228.1 558 228.1 561.5C228.2 568.5 228.2 575.5 228.3 582.5C228.4 589.5 228.4 596.5 228.5 603.5C228.6 610.5 228.7 617.5 228.8 624.5C228.9 631.5 229 638.5 229.1 645.5C229.1 647.3 229.2 649.1 229.2 650.9C229.2 652.5 229.4 654 230.5 655.2C231.5 656.2 232.9 656.4 234.2 656.4C235.9 656.4 237.7 656.4 239.4 656.4C242.9 656.4 246.4 656.4 249.9 656.3C256.9 656.2 263.9 656 270.9 655.9C273 655.9 275.2 655.8 277.3 655.8C292.6 655.6 308 655.4 323.3 655.2C330.3 655.1 337.3 655 344.3 654.9C345.9 654.9 347.8 655.1 349.4 654.6C350 654.4 350.5 654.1 350.8 653.5C351 653.1 351.1 652.7 351.1 652.2C351.5 645.5 351.2 638.8 351.2 632.1C351.1 625.1 351.1 618.1 351 611.1C350.9 604.1 350.8 597.1 350.7 590.1C350.6 583.1 350.5 576.1 350.4 569.1C350.1 566.5 350.1 564.1 350.1 561.7ZM257.6 653.9C250.6 654 243.6 654 236.7 654.1C235.7 654.1 234.7 654.2 233.8 654.2C233 654.2 232.4 654.2 231.8 653.5C230.8 652.1 231 650.6 231 649C231 647.2 231 645.5 231 643.7C231 640.2 230.9 636.7 230.9 633.2C230.8 626.2 230.7 619.2 230.7 612.2C230.6 605.2 230.5 598.2 230.4 591.2C230.3 584.2 230.2 577.2 230.1 570.2C230 563.2 229.9 556.2 229.8 549.2C229.8 547.7 229.7 546.1 229.7 544.6C229.7 543.5 229.3 541.7 229.9 540.7C230.1 540.5 230.3 540.3 230.5 540.1C231.6 539.3 233.3 539.5 234.6 539.5C236.4 539.5 238.1 539.5 239.9 539.5C243.4 539.5 246.9 539.4 250.4 539.4C257.4 539.3 264.4 539.3 271.4 539.2C278.4 539.1 285.4 539 292.4 538.9C299.4 538.8 306.4 538.7 313.4 538.6C316.1 538.6 318.8 538.5 321.5 538.5C326.1 538.4 330.6 538.4 335.2 538.3C337.5 538.3 339.8 538.2 342 538.2C343.8 538.2 346.2 537.6 347.5 539.2C347.6 539.4 347.8 539.5 347.9 539.7C348.7 541.3 348.2 543.1 348.2 544.8C348.2 547.1 348.2 549.4 348.3 551.7C348.3 556.3 348.4 560.8 348.5 565.4C348.6 574.5 348.7 583.7 348.9 592.8C349 601.9 349.2 611.1 349.3 620.2C349.3 622.4 349.4 624.7 349.4 626.9C349.4 628.1 349.4 629.2 349.4 630.4C349.4 633.9 349.5 637.4 349.5 640.9C349.5 642.6 349.6 644.4 349.6 646.1C349.6 647 349.6 647.8 349.6 648.7C349.6 649.5 349.7 650.3 349.6 651C349.5 651.5 349.3 652 348.9 652.3C348.4 652.7 348 652.6 347.5 652.6C346.9 652.6 346.3 652.6 345.7 652.6C344.4 652.6 343.1 652.6 341.8 652.6C334.8 652.7 327.8 652.8 320.8 652.9C313.8 653 306.8 653.1 299.8 653.2C292.8 653.3 285.8 653.4 278.8 653.5C271.6 653.7 264.6 653.8 257.6 653.9Z" fill="#93AABC"/>
<path d="M344.8 544.8C345.2 544.4 345.4 544 345.3 543.4C345.2 541.6 342.5 541.6 342.5 543.4C342.5 544 342.6 544.4 343.1 544.8C343.6 545.3 344.3 545.3 344.8 544.8Z" fill="#93AABC"/>
<path d="M345.9 647.6C344.1 647.6 344.2 650.3 345.9 650.3C347.7 650.3 347.6 647.6 345.9 647.6Z" fill="#93AABC"/>
<path d="M235.2 649.4C233.4 649.4 233.5 652.2 235.2 652.1C237 652.1 237 649.3 235.2 649.4Z" fill="#93AABC"/>
<path d="M233.6 542.6C231.4 542.6 231.5 546 233.6 546C235.8 545.9 235.8 542.5 233.6 542.6Z" fill="#93AABC"/>
<path d="M339.2 641.6C332.4 641.6 325.6 641.8 318.9 641.9C317.8 641.9 317.8 643.6 318.9 643.6C325.7 643.6 332.5 643.6 339.2 643.4C340.4 643.3 340.3 641.6 339.2 641.6Z" fill="#93AABC"/>
<path d="M339.1 637C332.3 637 325.5 637.2 318.8 637.3C317.7 637.3 317.7 639 318.8 639C325.6 639 332.4 639 339.1 638.8C340.3 638.8 340.3 637 339.1 637Z" fill="#93AABC"/>
<path d="M339.1 632.5C332.3 632.5 325.5 632.7 318.8 632.8C317.7 632.8 317.7 634.5 318.8 634.5C325.6 634.5 332.4 634.5 339.1 634.3C340.3 634.2 340.2 632.5 339.1 632.5Z" fill="#93AABC"/>
<path d="M339 627.9C332.2 627.9 325.4 628.1 318.7 628.2C317.6 628.2 317.6 629.9 318.7 629.9C325.5 629.9 332.3 629.9 339 629.7C340.2 629.6 340.2 627.9 339 627.9Z" fill="#93AABC"/>
</g>
<path d="M150.6 111.7C164 111.9 177.4 112 190.8 112.2C204.1 112.3 217.9 113.2 231 112.5C234.5 112.3 233.1 107.2 229.5 107C216 106.2 202.7 106.8 189.4 106.7C176 106.6 162.7 106.6 149.3 106.6C146 106.6 147.4 111.6 150.6 111.7Z" fill="#618FB5"/>
<path d="M228 165.8C232.5 165.8 230.4 158.7 226 158.8C223.6 158.9 222.8 158.9 220.4 159C216.1 159.1 218 165.8 222.4 165.8C224.7 165.8 225.6 165.8 228 165.8Z" fill="#618FB5"/>
<path d="M238.9 158.8C234.6 158.9 236.5 165.6 240.9 165.6C243.3 165.6 244.2 165.6 246.6 165.6C251.1 165.6 249 158.5 244.6 158.6C242.2 158.7 241.3 158.7 238.9 158.8Z" fill="#618FB5"/>
<path d="M259.6 165.4C262 165.4 262.9 165.4 265.3 165.4C269.8 165.4 267.7 158.3 263.3 158.4C260.9 158.5 260.1 158.5 257.7 158.6C253.2 158.7 255.2 165.3 259.6 165.4Z" fill="#618FB5"/>
<path d="M231.5 178C236 178 233.9 170.9 229.5 171C227.1 171.1 226.3 171.1 223.9 171.2C219.6 171.3 221.5 178 225.9 178C228.3 178 229.1 178 231.5 178Z" fill="#618FB5"/>
<path d="M250.2 177.8C254.7 177.8 252.6 170.7 248.2 170.8C245.8 170.9 245 170.9 242.6 171C238.3 171.1 240.2 177.8 244.6 177.8C246.9 177.7 247.8 177.8 250.2 177.8Z" fill="#618FB5"/>
<path d="M268.8 177.6C273.3 177.6 271.2 170.5 266.8 170.6C264.4 170.7 263.6 170.7 261.2 170.8C256.9 170.9 258.8 177.6 263.2 177.6C265.5 177.5 266.4 177.6 268.8 177.6Z" fill="#618FB5"/>
<path d="M235.1 190.1C239.6 190.1 237.5 183 233.1 183.1C230.7 183.2 229.9 183.2 227.5 183.3C223.2 183.4 225.1 190.1 229.5 190.1C231.8 190.1 232.7 190.1 235.1 190.1Z" fill="#618FB5"/>
<path d="M253.8 189.9C258.3 189.9 256.2 182.8 251.8 182.9C249.4 183 248.6 183 246.2 183.1C241.9 183.2 243.8 189.9 248.2 189.9C250.5 189.9 251.4 189.9 253.8 189.9Z" fill="#618FB5"/>
<path d="M272.4 189.7C276.9 189.7 274.8 182.6 270.4 182.7C268 182.8 267.2 182.8 264.8 182.9C260.5 183 262.4 189.7 266.8 189.7C269.1 189.7 270 189.7 272.4 189.7Z" fill="#618FB5"/>
<path d="M236.6 195.3C234.2 195.4 233.4 195.4 231 195.5C226.7 195.6 228.6 202.3 233 202.3C235.4 202.3 236.3 202.3 238.7 202.3C243.2 202.3 241.1 195.2 236.6 195.3Z" fill="#618FB5"/>
<path d="M255.3 195.1C252.9 195.2 252.1 195.2 249.7 195.3C245.4 195.4 247.3 202.1 251.7 202.1C254.1 202.1 255 202.1 257.4 202.1C261.8 202.1 259.8 195 255.3 195.1Z" fill="#618FB5"/>
<path d="M273.9 194.9C271.5 195 270.7 195 268.3 195.1C264 195.2 265.9 201.9 270.3 201.9C272.7 201.9 273.6 201.9 276 201.9C280.5 201.9 278.4 194.8 273.9 194.9Z" fill="#618FB5"/>
<path d="M190 115.8C189.4 114.2 186.9 114.9 187.5 116.5C197.6 146.6 206.7 176.9 215.6 207.4C216.1 209.2 218.9 208.4 218.4 206.6C210.2 176 200.5 145.6 190 115.8Z" fill="#618FB5"/>
<path d="M166.2 121C152.1 121.7 137.9 122.1 123.7 122.4C122.1 122.4 122.1 124.9 123.7 124.9C137.9 124.8 152 124.4 166.2 123.9C168.1 123.8 168.1 120.9 166.2 121Z" fill="#618FB5"/>
<path d="M145.8 130C139.6 130.2 133.3 130.6 127.1 131.1C125.4 131.3 125.4 133.9 127.1 133.8C133.3 133.3 139.5 132.9 145.8 132.7C147.6 132.7 147.6 129.9 145.8 130Z" fill="#618FB5"/>
<path d="M158.6 138.5C149.4 138.9 140.3 139.4 131.1 139.9C129.4 140 129.4 142.6 131.1 142.6C140.3 142.2 149.4 141.9 158.6 141.5C160.4 141.3 160.4 138.4 158.6 138.5Z" fill="#618FB5"/>
<path d="M169.7 149.8C171.5 149.5 170.7 146.7 168.9 147C157.2 149.1 145.5 150 133.6 149.8C131.9 149.8 131.9 152.4 133.6 152.5C145.8 152.8 157.8 151.9 169.7 149.8Z" fill="#618FB5"/>
<path d="M157.7 159.4C151 159.4 144.3 159.5 137.6 159.5C135.9 159.5 135.9 162.2 137.6 162.2C144.3 162.2 151 162.3 157.7 162.3C159.6 162.2 159.6 159.4 157.7 159.4Z" fill="#618FB5"/>
<path d="M186 174.8C187.9 174.8 187.9 171.8 186 171.9C171.4 172.3 156.7 172.2 142.1 171.6C140.4 171.5 140.4 174.2 142.1 174.3C156.8 174.9 171.4 175.1 186 174.8Z" fill="#618FB5"/>
<path d="M157.4 182.3C153.6 182.3 149.9 182.3 146.1 182.4C144.3 182.4 144.3 185.1 146.1 185.2C149.9 185.2 153.6 185.3 157.4 185.3C159.3 185.2 159.3 182.3 157.4 182.3Z" fill="#618FB5"/>
<path d="M171.9 193C173.7 192.8 173.7 189.9 171.9 190.1C164.6 191 157.2 191.3 149.8 191.2C148 191.2 148 193.9 149.8 193.9C157.2 194.2 164.5 193.9 171.9 193Z" fill="#618FB5"/>
<path d="M188.9 200.9C177 200.9 165.1 201.1 153.2 201.2C151.4 201.2 151.4 203.9 153.2 203.9C165.1 203.9 177 203.9 188.9 203.7C190.7 203.7 190.7 200.9 188.9 200.9Z" fill="#618FB5"/>
<path d="M212.7 134.3C227 134.5 241.3 134.5 255.6 134.5C257.4 134.5 257.4 131.7 255.6 131.6C241.3 131.5 227 131.5 212.7 131.5C211 131.6 211 134.3 212.7 134.3Z" fill="#618FB5"/>
<path opacity="0.1" d="M294.9 213.5C268 215.7 149.1 214.3 144.8 211.9C144.7 211.8 144.5 211.7 144.3 211.4L257 101.3C264.7 105.2 295.3 205.5 294.9 213.5Z" fill="white"/>
<path d="M346.9 414.9C347 409.6 338.8 409.6 338.7 414.9C338.4 436 338.5 457.1 339.2 478.2C339.4 483.5 347.6 483.5 347.4 478.2C346.9 457 346.7 435.9 346.9 414.9Z" fill="white"/>
<path d="M345.2 490.4C343.1 490.5 341.4 492.1 341.4 494.2V498.4C341.4 500.4 343.2 502.3 345.2 502.2C347.3 502.1 349 500.5 349 498.4V494.2C349 492.2 347.3 490.3 345.2 490.4Z" fill="white"/>
<path d="M205.7 256.1C205.7 253.6 201.9 253.6 201.8 256.1C201.6 284.8 202.1 313.4 203.5 342C203.6 344.6 207.7 344.6 207.6 342C206.2 313.4 205.5 284.7 205.7 256.1Z" fill="white"/>
<path d="M591 676.4C591.3 681 544.7 681.4 486.7 681.4C428.8 681.4 381.5 682.1 381.1 676.4C380.8 672 428.3 671.4 486.2 671.4C544.1 671.4 590.6 670 591 676.4Z" fill="#887799"/>
<path d="M549.5 677.8L538.9 678.6C538.9 678.6 535.8 678.6 532.1 678.4C527.1 678.2 521.2 677.6 520.7 676.3C520.4 675.4 519.6 673.5 519.5 670.9C519.2 666.9 520.4 661.2 526.8 654.6C531.4 649.9 523.8 618.9 526 614.3C527.8 610.6 539.6 608.1 539.6 608.1L549.5 677.8Z" fill="#6C4E4E"/>
<path d="M512.5 572.3C512.5 572.3 526.9 613.4 529.9 625.1C532.9 636.7 533.7 656.9 533.7 656.9L561.7 652.2C561.7 652.2 547.3 565.7 545.7 558.7C544.2 551.7 512.5 572.3 512.5 572.3Z" fill="#E9946B"/>
<path d="M571.5 675.5C568.5 678.6 530.6 679.4 528.4 677.8C527.2 677 527.7 670.5 528.9 664.2C530 658.8 528.7 636.4 530.1 634.9C533.1 631.8 529.8 627.2 538.1 622.6C538.1 622.6 551 618.2 554.8 623.6C558.6 629 560.8 640.1 563.9 646.3C565.2 649 566.8 655.8 568.8 660.7C571.3 667.2 573.2 673.7 571.5 675.5Z" fill="#6C4E4E"/>
<path d="M568.7 660.7C565 660.9 560.3 660.9 554.1 661.5C553 647.8 550.7 642.4 546.6 629.3C546.3 628.5 545 628.8 545.3 629.7C549.3 642.7 550.3 648.5 551.4 662.1C541.6 663 531.7 664.4 529.1 664.7C527.9 671 527.1 677.1 528.3 677.9C530.6 679.5 568.4 678.7 571.4 675.6C573.2 673.7 571.3 667.2 568.7 660.7Z" fill="#4A3333"/>
<path d="M558.7 614.5C558.4 612.8 555.6 611.3 552.5 611.3C549.4 611.3 545.7 622.3 545.7 622.3L548 625.3C548 625.3 559 616.2 558.7 614.5Z" fill="#6C4E4E"/>
<path d="M532.1 678.4C527.1 678.2 521.2 677.6 520.7 676.3C520.4 675.4 519.6 673.5 519.5 670.9C520.2 671 524.6 671.6 525.3 670.9C526.1 670.1 526.1 665.5 529.1 664.7C531.9 663.9 532.1 676.7 532.1 678.4Z" fill="#4A3333"/>
<path d="M460.1 382.3C460.1 382.3 470.3 448.3 472.7 462.9C475.1 477.4 501.9 591 501.9 591L559.4 574C559.4 574 529.7 461.1 529.1 443.1C527.6 392.5 533.1 362.7 532.1 319.2C531.3 284 517.7 263.6 517.7 261.8C517.7 257.8 463.2 284.6 463.2 284.6L460.1 382.3Z" fill="#7199C9"/>
<path d="M499.5 584.5C499.5 584.5 561 564.3 562.5 566.7C564.1 569.1 567.2 589.3 564.9 591.7C562.5 594.1 516.8 598.2 510.5 600.6C504.2 603 503.4 603.8 501.8 600.6C500.3 597.4 499.5 584.5 499.5 584.5Z" fill="#B0C1D3"/>
<path d="M461.1 573.4C461.1 573.4 455.6 622.1 459.6 635C463.5 647.9 467.3 670.2 464.9 674.3C462.5 678.3 395.6 673.8 390.1 669.8C384.6 665.8 391.3 667 398.4 663.8C403.2 661.6 417.1 646.7 421.1 641.1C429.4 629.4 427.2 589.5 425.6 575.7C424 561.9 461.1 573.4 461.1 573.4Z" fill="#E9946B"/>
<path d="M467.8 676.6C466.3 678.8 425.6 680.3 412.6 680.3C399.6 680.3 382.8 679.6 380.6 677.3C380.5 677.2 380.4 677.1 380.3 676.9C378 673.9 380.2 668 381.8 665.4C385.7 659.2 392.7 658.7 399.2 656.2C405.2 653.8 413.5 648.2 416.9 642.3C423.3 631.2 424.2 615.5 424.2 615.5C424.2 615.5 424.4 615.5 424.7 615.5C426.7 615.3 434.5 614.9 437.7 618.2C440.5 621 442.8 625.6 444.7 628C445 628.4 445.3 628.7 445.6 628.9C445.9 629.1 446.1 629.3 446.4 629.4C448.3 630.1 452.5 625.5 456.9 625.9C457.2 625.9 457.6 626 457.9 626.1C458.2 626.2 458.5 626.3 458.7 626.4C459.1 626.6 459.6 628.1 460 630.3C460.9 634.4 461.8 640.9 462.8 646C462.9 646.5 463 646.9 463.1 647.4C463.4 648.9 463.8 650.3 464.1 651.4C465 654.2 466 658.7 466.8 663.1C468 669.2 468.7 675.3 467.8 676.6Z" fill="#6C4E4E"/>
<path d="M466.9 663C465.5 663.1 463.7 663.1 461.7 663.2C460.7 653.7 456.5 644.8 455.6 635.2C455.5 634.4 454.3 634.4 454.3 635.2C455.1 644.8 459.3 653.8 460.3 663.3C453.6 663.7 445.3 664.4 442 665.8C434.7 668.8 436.2 670.3 430.4 671C425 671.7 385.4 671.1 379.7 670.9C379.3 673.4 379.2 675.9 380.6 677.3C382.8 679.5 399.5 680.3 412.6 680.3C425.7 680.3 466.4 678.8 467.8 676.6C468.7 675.3 468 669.2 466.9 663Z" fill="#4A3333"/>
<path d="M444 627.9C436.6 630.6 431.1 637.2 425.8 642.8C422.7 646.2 419.6 650 415.3 651.8C410.6 653.9 405.4 656.4 400.4 656.2C398.8 656.1 399.1 657.4 400.6 657.6C405.1 658.1 409.6 656.5 414 655.3C418.1 654.2 421.3 651.6 424.3 648.6C431 641.9 435.7 634.5 444.2 630C445.6 629.3 445.5 627.4 444 627.9Z" fill="#4A3333"/>
<path d="M469.5 624.7C469 623.4 468.4 621.2 467.1 620.6C465.9 620 464.7 620.8 463.7 621.4C460.5 623.3 457.7 625.9 455.7 629C455.4 629.4 455.5 629.9 455.7 630.3C455.7 630.8 456.1 631.3 456.8 631.7C457.4 632 458.1 631.9 458.5 631.5C458.7 631.3 458.9 631.1 459.1 630.9C459.9 630.4 460.6 629.8 461.4 629.3C463.6 628.1 465.7 627 468.1 626.7C468.9 626.5 469.8 625.7 469.5 624.7Z" fill="#6C4E4E"/>
<path d="M414.2 264C414.3 260.1 402.3 581.1 404 584.5C405.6 587.7 457.6 595 459.9 590.2C461.5 587 465 507.6 468.6 451.4C470.4 423.4 472.2 401.2 473.8 396.9C478.5 384 490.3 368.5 492.7 342.7C495.1 316.9 492.7 265.2 492.7 265.2L414.2 264Z" fill="#7199C9"/>
<path d="M461.9 586.5C461.9 586.5 465.1 597.8 464.3 600.2C463.5 602.6 433.6 601 427.3 604.2C421 607.4 403.7 613.9 401.3 607.4C398.9 600.9 398.1 584 401.3 582.4C404.5 580.8 435.2 584 440.7 585.6C446.2 587.3 460.4 584.1 461.9 586.5Z" fill="#B0C1D3"/>
<path opacity="0.5" d="M474.8 288.3C474.3 287.6 473.3 286.4 452.1 288.7C445.7 289.4 431.4 291.1 430.1 291.9C429.5 292.2 428.5 292.8 428.5 305.1C428.5 310.7 428.7 317.6 429.3 319.7C429.5 320.4 430 322.3 441 330.5C446.3 334.4 451.6 337.9 451.6 338C451.8 338.1 452 338.2 452.2 338.2C452.6 338.2 453 338 453.2 337.7C453.5 337.2 453.4 336.5 452.9 336.1C442.8 329.3 432 321.1 431.5 319.1C430.5 315.6 430.6 296.7 431.5 293.8C433.3 293.4 441.9 292.1 452 291C465.7 289.5 471.9 289.5 473.1 289.9C473.4 290.6 474.1 293 474.7 298.7C475.2 303.6 475.2 307.1 475 307.6C474.4 308.9 464.4 321.5 458.3 329.2C457.9 329.7 458 330.4 458.5 330.8C459 331.2 459.7 331.1 460.1 330.6C463.9 325.8 476.5 310.1 477.1 308.5C477.9 306.5 476.7 290.7 474.8 288.3Z" fill="#346A91"/>
<path opacity="0.5" d="M531.8 325.3C530.2 323.8 525.2 321.3 520.4 318.8C516.9 317 512.6 314.8 512.1 314.2C511 312.4 508.6 293.6 509.2 290.8C511.6 289.1 519.7 289.1 524.4 289.5C525 289.5 525.5 289.1 525.6 288.5C525.6 287.9 525.2 287.3 524.6 287.3C523.2 287.2 511.1 286.3 507.5 289.3C507 289.7 506.2 290.4 507.7 302.4C508.1 305.9 509.2 314.3 510.4 315.7C511.1 316.6 513.7 318 519.5 320.9C523.7 323.1 529 325.8 530.4 327C530.6 327.2 530.9 327.3 531.1 327.3C531.4 327.3 531.8 327.2 532 326.9C532.2 326.5 532.2 325.7 531.8 325.3Z" fill="#346A91"/>
<path d="M471.3 441.3C471.2 441.3 471 441.3 470.9 441.3C470.1 441.2 469.5 440.4 469.6 439.6C472.6 418.1 474.7 392 475.8 373.7V373.6C476 372.3 477.5 361.1 481 356.9C481.6 356 495.5 336.4 495.5 315.1C495.5 312.4 495.4 309.5 495.1 306.6C495 305.8 495.6 305 496.5 304.9C497.3 304.8 498.1 305.4 498.2 306.3C498.5 309.3 498.7 312.3 498.7 315.1C498.7 337.7 484.2 357.8 483.6 358.7C483.6 358.7 483.6 358.7 483.5 358.8C481 361.8 479.4 370.7 479 374C477.8 392.4 475.8 418.5 472.8 440.1C472.5 440.7 472 441.2 471.3 441.3Z" fill="#346A91"/>
<path opacity="0.5" d="M514.1 571.6C503.9 534.7 495.2 497.5 486.7 460.3C485.5 455.3 484.7 450 483.1 445.1C482.4 443 481.3 441.2 480 439.4C478.7 437.6 477 434.2 479.8 432.9C480.6 432.5 479.9 431.4 479.1 431.8C476.4 433.1 476.6 436.6 477.9 438.9C479 440.8 480.4 442.3 481.2 444.3C482.1 446.5 482.6 448.9 483.1 451.3C485.3 461 487.5 470.7 489.7 480.3C494.2 499.9 498.9 519.5 503.8 538.9C506.6 550 509.5 561 512.5 572C512.9 572.9 514.3 572.5 514.1 571.6Z" fill="#346A91"/>
<path d="M507.9 97.6001C508.7 97.8001 529.1 108.4 536.7 122.7C544.3 137 544.3 159 551.1 177.1C557.9 195.2 563.2 197.5 560.9 206.6C558.6 215.7 555.6 213.4 557.9 223.2C560.2 233 549.6 250.4 529.9 255.7C510.2 261 507.9 97.6001 507.9 97.6001Z" fill="#AFA366"/>
<path opacity="0.5" d="M536.5 122.5C536.6 130 536.7 141.9 535.1 149.3C534.9 150.2 536.2 150.5 536.4 149.7C537.8 143.3 537.8 132.2 537.9 125.7L536.5 122.5Z" fill="#9A8E53"/>
<path d="M535.8 246.3C532.2 263.7 525.1 267.3 525.1 267.3C525.1 267.3 525 267.5 524.9 267.8C524.7 268.2 524.2 268.7 524.1 269.5C523.1 274.7 516.3 284.5 503.4 289.8C495.3 293.1 479.2 289.2 465.5 279.7C451.7 270.3 425.6 267.4 425.6 267.4L443.7 97.7C443.7 97.7 444.4 87.5 447.3 83.9C450.2 80.3 484.3 74.5 487.9 75.9C491.5 77.4 494.4 83.9 498.8 86.8C503.2 89.7 509 99.1 509 99.1C509 99.1 515.5 102 521.3 109.3C527.1 116.6 527.1 128.9 533.6 161.5C540.1 194.1 539.4 228.9 535.8 246.3Z" fill="#AFA366"/>
<path d="M539 193.3C537.5 173.5 533.4 154.1 531.9 134.3C531.8 132.7 529.4 132.7 529.5 134.3C530.4 153.9 534.6 173.1 536.1 192.6C536.8 202.1 537 211.6 536.5 221C536 231 534.2 240.7 533.1 250.6C532.9 252.1 535.4 252.4 535.7 251C538 242.1 538.7 232.3 539.3 223.1C539.9 213.1 539.8 203.2 539 193.3Z" fill="#918346"/>
<path d="M524.9 267.7C524.7 268.1 524.4 268.6 524.1 269.4C520.1 270.4 511.9 274 508.3 276.2C506.2 277.5 504 279.3 501.4 279.7C498.9 280.1 496.4 278.9 494.2 277.8C483.7 272.5 467.1 259.9 454.5 260.4C453.7 260.4 453.6 259.2 454.5 259.1C466.4 258.4 483 269.8 492.7 275.3C495.3 276.8 498.7 279 501.8 278.2C504.6 277.4 507.2 275.2 509.7 273.7C513 271.7 521.1 268.4 524.9 267.7Z" fill="#918346"/>
<path d="M457.4 87.6C453 87.7 449.1 89.2 445.1 90.8C443.6 91.4 445.1 93.2 446.6 92.6C450.4 91.2 453.3 90.5 457.4 90.3C459.1 90.2 459.1 87.6 457.4 87.6Z" fill="#9A8E53"/>
<path d="M459.5 269.7C459.4 271.4 459.2 276.4 458.5 278C457 281 400.7 284.4 396.2 282.2C394.9 281.6 394 279.1 393.5 275.9C392.1 268 392.5 255.7 392.5 255.7C392.5 255.7 392.5 253.4 392.6 250.5C392.7 246.4 392.9 241 393.3 238.3C393.7 236.1 400.9 235.5 402.4 235.2C409 234 415.7 233.3 422.3 232.8C428.7 232.3 435.1 231.9 441.4 231.7C447.1 231.6 453.8 230.4 457.3 236C459.5 239.6 459.1 242.7 459.3 246.7C459.5 250.8 459.7 254.8 459.7 258.9C459.6 262.5 459.6 266.1 459.5 269.7Z" fill="#6C4E4E"/>
<path d="M453.2 237.2C453.2 237.2 481.2 189.6 496.3 151.8C511.4 114 510.7 104.2 512.2 100.4C513.7 96.6001 510.9 93.2001 509.3 93.0001C507.7 92.8001 510 106.4 497.9 133.6C485.8 160.8 454.8 228 448.8 234.1C442.6 240.2 453.2 237.2 453.2 237.2Z" fill="#6C4E4E"/>
<path d="M447 276.7C446.8 276.4 446.6 276.2 446.4 275.8C446.2 275.1 446.2 274.3 446.1 273.6C446 270.5 445.9 267.5 445.8 264.4C445.6 258.1 445.7 251.8 445.4 245.5C445.3 243.6 445.2 241.4 444.8 239.6C444.4 237.7 444.7 235.7 446.3 234.3C446.7 233.9 447.3 233.6 447.5 233C447 232.8 446.4 233 446 233.3C444.5 234.1 442.9 234.9 442.5 236.6C442.1 238.5 442.5 240.5 442.5 242.5C442.7 247.7 442.8 252.9 443 258.2C443.2 263.2 443.3 268.1 443.5 273.1C443.6 274.9 443.4 276.8 445 278.1C445.9 278.8 447 279.1 448.1 279C448.3 279 448.6 278.9 448.6 278.7C448.6 278.6 448.6 278.5 448.5 278.4C448.2 277.6 447.5 277.3 447 276.7Z" fill="#4A3333"/>
<path d="M427.8 247.4L393.3 275.9C391.9 268 392.3 255.7 392.3 255.7C392.3 255.7 392.3 253.4 392.4 250.5L427.8 247.4Z" fill="#1A1A1A"/>
<path d="M455.8 232.7C454.7 233.8 453.5 236.7 452 237.1C451 237.4 448 237.9 447.3 237C446.9 236.5 446 237.2 446.3 237.7C447.2 239.2 450 238.9 451.5 238.7C453.8 238.3 454.8 236.6 455.9 234.5C456.1 233.9 456.3 232.2 455.8 232.7Z" fill="#4A3333"/>
<path d="M315.8 166.3C315.8 166.3 310.1 170.7 306.4 173.5C305 174.6 303.8 175.4 303.4 175.6C301.8 176.5 285.4 149.8 285.4 149C285.4 148.6 286.8 147.4 288.4 146.1C290.3 144.6 292.4 143.1 292.4 143.1L300.3 139.5L315.8 166.3Z" fill="#5F7AB3"/>
<path d="M346 168C346 168 339 161.2 333.9 155.8C328.8 150.4 317.7 133.9 316.9 133.2C316.1 132.4 302.3 131.4 300.8 133.1C299.3 134.8 289.1 142.4 289.2 144.1C289.3 145.8 294.9 145.5 294.9 145.5C294.9 145.5 295.1 147.1 295.8 148.7C296.4 150 297.9 151.4 297.2 153.1C296.5 154.7 296.1 154.4 297 156.7C297.9 159.1 301.4 164.6 302.9 162.9C304.6 161.1 304.1 159.7 303.8 157.4C304.6 157.6 305.4 157.7 306.1 157.7C307.5 162.4 310.5 166.6 314.5 169.5C316.3 170.8 318.3 171.8 319.7 173.6C320.5 174.6 321.2 175.6 322 176.6C324 179.2 325.9 181.8 327.8 184.4C330.5 188.1 333.1 191.7 335.7 195.4L346 168Z" fill="#E9946B"/>
<path d="M305.2 137.4C301.5 138 295.9 138 293.8 141.8C293.3 142.7 293 144 293.4 145C293.6 145.6 294.1 146 294.3 146.5C294.5 147.3 294.2 148.1 294.2 148.8C294.2 150 295.2 150.8 295.6 151.9C295.9 152.6 295.7 153.1 295.8 153.8C295.9 154.6 296.2 155.3 296.6 156C296.7 156.1 296.8 156.3 297 156.3C297.4 156.4 297.7 155.9 297.8 155.5C297.8 154.8 297.5 154 297.6 153.3C297.7 152.8 298 152.4 298 151.9C298.1 150.7 296.8 149.9 296.5 148.7C296.3 148 296.5 147.2 296.5 146.5C296.5 145.7 296.3 144.8 296.5 144C296.7 143.2 297.2 142.1 298 141.7C298.7 141.4 299.7 141.2 300.4 140.9C302.5 140.2 304.6 139.8 306.7 139.1C308.2 138.8 306.9 137.2 305.2 137.4Z" fill="#DE835C"/>
<path d="M306.4 173.5C305 174.6 303.8 175.4 303.4 175.6C301.8 176.5 285.4 149.8 285.4 149C285.4 148.6 286.8 147.4 288.4 146.1L306.4 173.5Z" fill="#1A1A1A"/>
<path d="M450.5 190.7C449 193.7 446 190.7 446.7 197.5C447.4 204.3 449.7 227.7 432.3 244.3C414.9 260.9 395.3 262.4 388.5 258.7C381.7 254.9 368.9 235.3 365.1 235.3C361.3 235.3 351.5 236.1 347.7 229.3C343.9 222.5 340.1 205.9 338.6 203.6C337.1 201.3 331 197.6 329.5 193C328 188.5 343.1 165 343.1 165C343.1 165 347 168.5 352.3 173.1C352.8 173.5 353.2 173.9 353.7 174.3C363.8 183.2 377.7 195.2 378.6 195.2C380.1 195.2 377.1 187.6 380.9 183.9C384.7 180.1 394.5 168.8 398.3 154.4C402.1 140 405.9 124.9 411.1 116.6C416.4 108.3 441.3 94.7001 445.9 93.2001C450.5 91.7001 448.2 157.4 448.2 157.4C448.2 157.4 447.4 165.7 450.5 174.8C453.5 183.9 452 187.7 450.5 190.7Z" fill="#AFA366"/>
<path d="M453.4 182.9C452.6 175 450.4 167 448.8 159.2C448.5 157.6 446.1 158.3 446.4 159.9C447.7 167.3 449.3 174.7 450.3 182.1C450.7 184.7 450.6 187.3 448.8 189.4C448.1 190.3 447.2 191 446.5 192C444.8 194.4 444.7 197.1 445 199.9C446 209.7 445.6 219.3 442.3 228.2C442 229 442.4 229.9 443.2 230.1C444 230.3 444.8 230 445.1 229.2C448.5 220.4 449.3 210.6 448.1 201C447.9 199.1 447.6 197.4 448.2 195.6C448.8 193.4 450.3 192.4 451.6 190.7C453.4 188.4 453.7 185.8 453.4 182.9Z" fill="#918346"/>
<path d="M400 231.1C398.2 225.2 395 219.7 391.7 214.5C388.3 209 383.5 203.7 381.7 197.3C381.3 195.7 378.8 196.4 379.2 198C379.2 198.2 379.3 198.3 379.3 198.5C379.6 202.4 381.6 206 383 209.6C384.6 213.9 385.9 218.3 386.9 222.7C387.1 223.6 388.5 223.2 388.3 222.3C388 221.1 387.7 220 387.4 218.8C387.4 218.7 387.4 218.7 387.4 218.6C387 215.7 386.2 212.8 385.3 209.9C386.2 211.3 387.2 212.7 388.1 214C391.7 219.7 394.7 225.7 397.6 231.8C398.3 233.3 400.4 232.4 400 231.1Z" fill="#918346"/>
<path d="M353.8 174.4C348.3 183 343.7 192.2 340.1 201.9C339.8 202.7 338.6 202.4 338.8 201.6C342.2 191.7 346.7 182.1 352.3 173.2C352.9 173.5 353.3 174 353.8 174.4Z" fill="#918346"/>
<path opacity="0.5" d="M406.8 125.9C413 124 419.8 128.1 424.7 132.2C432 138.4 438.2 145.8 443 154.1C443.5 154.9 442.2 155.7 441.7 154.8C437.4 147.6 432.2 141.1 426.1 135.4C421.1 130.8 413.2 124.4 406.2 127.6L406.8 125.9Z" fill="#9A8E53"/>
<path d="M455.9 2.60005C455.9 2.60005 437.7 2.60005 432.9 17.5C428.2 32.4 438 47.6001 438 50.9001C438 54.2001 427.2 68.5 432.6 79.3C436.4 86.9 446.5 96.2 446.5 96.2C446.5 96.2 442.5 107.4 447.2 112.2C451.9 116.9 457.6 114.5 456.9 120.5C456.2 126.6 454.8 141.3 470.1 148.5C485.5 155.7 497.1 141.7 497.1 141.7C497.1 141.7 516 143.1 518.7 126.2C521.4 109.3 518 105.3 520.7 97.2C523.4 89.1 528.1 78.3 522.1 68.2C516 58.1 503.2 52.7001 503.2 52.7001C503.2 52.7001 510 45.9 506.6 37.8C503.2 29.7 491.1 21.6 491.1 20.9C491.1 20.2 484.3 4.70005 477.6 1.30005C470.9 -2.09995 455.9 2.60005 455.9 2.60005Z" fill="#953836"/>
<path d="M427.2 23.5001H427.1C426.5 23.4001 426.1 22.9001 426.2 22.3001C427.2 15.6001 430.1 10.4001 434.8 6.80011C444.1 -0.199893 457.2 1.70011 457.8 1.80011C458.4 1.90011 458.8 2.40011 458.7 3.00011C458.6 3.60011 458.1 4.00011 457.5 3.90011C457.4 3.90011 444.7 2.10011 436.1 8.50011C431.8 11.7001 429.2 16.4001 428.3 22.6001C428.2 23.2001 427.7 23.5001 427.2 23.5001Z" fill="#953836"/>
<path d="M529 92.6001C528.9 92.6001 528.7 92.6001 528.6 92.5001C528.1 92.3001 527.8 91.7001 528 91.2001C529.8 86.5001 531.3 79.4001 527.9 71.9001C522 58.8001 501.6 53.7001 501.1 53.6001C500.6 53.6001 500.1 53.1001 500.1 52.6001C500.1 52.0001 500.6 51.6001 501.1 51.6001C502.4 51.6001 523.5 57.3001 529.7 71.1001C533.4 79.3001 531.8 87.0001 529.9 92.1001C529.8 92.4001 529.4 92.6001 529 92.6001Z" fill="#953836"/>
</g>
<defs>
<clipPath id="clip0_281_146">
<rect width="591" height="681.4" fill="white"/>
</clipPath>
</defs>
</svg>
